<svg xmlns="http://www.w3.org/2000/svg" version="1.1" width="1024" height="680">
<rect x="0" y="0" width="1024" height="680" fill="#747e5f" />
<g transform="scale(4.000000) translate(0.5 0.5)">
<polygon fill="#9bcbff" fill-opacity="0.501961" points="0,0 97,99 255,1" />
<polygon fill="#302d00" fill-opacity="0.501961" points="255,169 0,168 255,81" />
<polygon fill="#3f3d00" fill-opacity="0.501961" points="255,168 0,169 0,83" />
<polygon fill="#bcae6a" fill-opacity="0.501961" points="251,23 173,144 25,74" />
<polygon fill="#a8bcc8" fill-opacity="0.501961" points="143,84 0,30 252,18" />
<polygon fill="#5b6000" fill-opacity="0.501961" points="0,143 244,84 255,163" />
<polygon fill="#437dbb" fill-opacity="0.501961" points="255,0 238,41 86,1" />
<polygon fill="#5393db" fill-opacity="0.501961" points="104,40 0,1 159,0" />
<polygon fill="#908a43" fill-opacity="0.501961" points="173,133 19,103 247,71" />
<polygon fill="#b4aa8b" fill-opacity="0.501961" points="35,29 190,102 42,78" />
<polygon fill="#989378" fill-opacity="0.501961" points="255,18 173,45 246,101" />
<polygon fill="#333b00" fill-opacity="0.501961" points="255,120 255,169 103,169" />
<polygon fill="#494808" fill-opacity="0.501961" points="1,155 134,143 0,97" />
<polygon fill="#99c2e5" fill-opacity="0.501961" points="134,58 51,27 159,7" />
<polygon fill="#708388" fill-opacity="0.501961" points="40,116 0,1 53,0" />
<polygon fill="#877b4c" fill-opacity="0.501961" points="68,71 46,150 5,51" />
<polygon fill="#626612" fill-opacity="0.501961" points="212,147 55,98 162,166" />
<polygon fill="#c2b888" fill-opacity="0.501961" points="85,80 181,41 145,101" />
<polygon fill="#7c7820" fill-opacity="0.501961" points="166,57 159,95 192,91" />
<polygon fill="#457cb2" fill-opacity="0.501961" points="82,1 0,0 1,30" />
<polygon fill="#c9c6be" fill-opacity="0.501961" points="204,128 212,134 198,137" />
<polygon fill="#bdc5bb" fill-opacity="0.501961" points="112,31 116,83 179,40" />
<polygon fill="#707400" fill-opacity="0.501961" points="134,105 154,96 170,149" />
<polygon fill="#9ea190" fill-opacity="0.501961" points="4,46 54,44 2,18" />
<polygon fill="#282c00" fill-opacity="0.501961" points="37,141 123,168 41,169" />
<polygon fill="#6f6420" fill-opacity="0.501961" points="87,107 124,82 118,102" />
<polygon fill="#9f9d76" fill-opacity="0.501961" points="216,43 147,67 221,94" />
<polygon fill="#7ca6cb" fill-opacity="0.501961" points="167,0 201,40 83,15" />
<polygon fill="#606516" fill-opacity="0.501961" points="134,154 187,109 66,162" />
<polygon fill="#929375" fill-opacity="0.501961" points="66,56 0,28 61,100" />
<polygon fill="#336da2" fill-opacity="0.501961" points="255,30 255,1 188,0" />
<polygon fill="#626024" fill-opacity="0.501961" points="0,53 50,127 12,132" />
<polygon fill="#95a49f" fill-opacity="0.501961" points="196,68 188,24 235,25" />
<polygon fill="#928958" fill-opacity="0.501961" points="240,103 255,81 211,35" />
<polygon fill="#90847c" fill-opacity="0.501961" points="9,162 16,152 51,161" />
<polygon fill="#2c3300" fill-opacity="0.501961" points="53,115 2,167 8,141" />
<polygon fill="#494e00" fill-opacity="0.501961" points="255,107 181,100 255,143" />
<polygon fill="#7d764d" fill-opacity="0.501961" points="56,66 0,100 0,65" />
<polygon fill="#665828" fill-opacity="0.501961" points="86,82 64,98 64,86" />
<polygon fill="#bdbeb8" fill-opacity="0.501961" points="89,106 84,77 114,35" />
<polygon fill="#767656" fill-opacity="0.501961" points="246,49 253,21 193,75" />
<polygon fill="#62630b" fill-opacity="0.501961" points="169,137 245,72 225,124" />
<polygon fill="#8a8b56" fill-opacity="0.501961" points="222,72 178,128 198,81" />
<polygon fill="#77743f" fill-opacity="0.501961" points="51,145 12,109 12,128" />
<polygon fill="#4c4f00" fill-opacity="0.501961" points="77,105 61,97 60,164" />
<polygon fill="#a7a46b" fill-opacity="0.501961" points="201,111 155,104 160,117" />
<polygon fill="#1b2b00" fill-opacity="0.501961" points="216,169 210,134 232,133" />
<polygon fill="#f7fcfd" fill-opacity="0.501961" points="99,108 111,109 106,105" />
<polygon fill="#9a9064" fill-opacity="0.501961" points="140,75 72,91 111,97" />
<polygon fill="#816b40" fill-opacity="0.501961" points="100,125 96,97 73,121" />
<polygon fill="#b2ab85" fill-opacity="0.501961" points="230,81 219,71 254,42" />
<polygon fill="#364204" fill-opacity="0.501961" points="168,151 106,167 150,138" />
<polygon fill="#5e5b21" fill-opacity="0.501961" points="130,98 66,147 82,165" />
<polygon fill="#a39f65" fill-opacity="0.501961" points="132,130 142,84 127,79" />
<polygon fill="#789cb3" fill-opacity="0.501961" points="50,9 63,38 5,20" />
<polygon fill="#151f00" fill-opacity="0.501961" points="255,131 255,169 228,169" />
<polygon fill="#89a4b3" fill-opacity="0.501961" points="5,32 14,25 34,63" />
<polygon fill="#dedcea" fill-opacity="0.501961" points="176,125 167,125 164,135" />
<polygon fill="#8a845d" fill-opacity="0.501961" points="9,95 34,68 8,33" />
<polygon fill="#9f9982" fill-opacity="0.501961" points="192,5 153,0 170,8" />
<polygon fill="#a7a997" fill-opacity="0.501961" points="137,57 54,92 84,61" />
<polygon fill="#d7d6cb" fill-opacity="0.501961" points="119,101 138,93 126,89" />
<polygon fill="#464704" fill-opacity="0.501961" points="52,107 21,165 22,126" />
<polygon fill="#323c00" fill-opacity="0.501961" points="225,112 250,102 217,99" />
<polygon fill="#8d9279" fill-opacity="0.501961" points="24,15 52,25 53,14" />
<polygon fill="#3a4101" fill-opacity="0.501961" points="7,105 30,116 24,95" />
<polygon fill="#c3c9be" fill-opacity="0.501961" points="121,82 137,38 168,17" />
<polygon fill="#6c6d0a" fill-opacity="0.501961" points="153,126 196,94 177,124" />
<polygon fill="#605d1c" fill-opacity="0.501961" points="232,93 213,78 226,72" />
<polygon fill="#b5aa99" fill-opacity="0.501961" points="35,70 37,103 42,81" />
<polygon fill="#79abd8" fill-opacity="0.501961" points="27,33 95,10 159,28" />
<polygon fill="#636338" fill-opacity="0.501961" points="36,46 20,93 33,92" />
<polygon fill="#d7d0c5" fill-opacity="0.501961" points="157,85 134,94 157,92" />
<polygon fill="#8a8b3b" fill-opacity="0.501961" points="147,129 141,151 137,134" />
<polygon fill="#d6ccd1" fill-opacity="0.501961" points="155,109 161,113 162,105" />
<polygon fill="#433f0e" fill-opacity="0.501961" points="81,145 97,160 91,108" />
<polygon fill="#77783b" fill-opacity="0.501961" points="191,157 209,134 197,163" />
<polygon fill="#b1ad91" fill-opacity="0.501961" points="49,129 39,129 41,142" />
<polygon fill="#89862b" fill-opacity="0.501961" points="166,110 158,69 173,67" />
<polygon fill="#716f24" fill-opacity="0.501961" points="219,76 163,88 183,96" />
<polygon fill="#47420f" fill-opacity="0.501961" points="50,119 45,87 41,120" />
<polygon fill="#b3b087" fill-opacity="0.501961" points="177,70 196,64 163,37" />
<polygon fill="#a9a274" fill-opacity="0.501961" points="63,37 81,46 58,48" />
<polygon fill="#94c1e2" fill-opacity="0.501961" points="109,61 72,38 126,23" />
<polygon fill="#9d9b8c" fill-opacity="0.501961" points="86,104 79,94 64,98" />
<polygon fill="#656709" fill-opacity="0.501961" points="236,125 196,129 201,95" />
<polygon fill="#9a9926" fill-opacity="0.501961" points="162,158 153,159 155,151" />
<polygon fill="#959227" fill-opacity="0.501961" points="177,138 162,132 173,150" />
<polygon fill="#424a00" fill-opacity="0.501961" points="49,135 87,145 65,110" />
<polygon fill="#6f8a93" fill-opacity="0.501961" points="200,0 191,41 184,3" />
<polygon fill="#222a03" fill-opacity="0.501961" points="68,169 70,154 15,169" />
<polygon fill="#a3a382" fill-opacity="0.501961" points="24,75 32,77 31,58" />
<polygon fill="#bfbd8c" fill-opacity="0.501961" points="169,76 199,80 186,73" />
<polygon fill="#484e05" fill-opacity="0.501961" points="180,169 206,139 175,130" />
<polygon fill="#5e6500" fill-opacity="0.501961" points="122,101 131,106 110,108" />
<polygon fill="#dddad4" fill-opacity="0.501961" points="86,115 82,122 86,123" />
<polygon fill="#9e9658" fill-opacity="0.501961" points="140,69 131,76 165,75" />
<polygon fill="#222b00" fill-opacity="0.501961" points="0,116 26,154 9,152" />
<polygon fill="#3671a2" fill-opacity="0.501961" points="14,12 52,0 0,1" />
<polygon fill="#a7a787" fill-opacity="0.501961" points="50,74 58,113 62,84" />
<polygon fill="#4a4c07" fill-opacity="0.501961" points="243,155 255,109 205,136" />
<polygon fill="#ccbeb6" fill-opacity="0.501961" points="212,169 204,169 207,164" />
<polygon fill="#75733e" fill-opacity="0.501961" points="222,58 219,67 244,66" />
<polygon fill="#949682" fill-opacity="0.501961" points="253,17 228,66 235,33" />
<polygon fill="#8ba8b5" fill-opacity="0.501961" points="165,43 170,17 140,49" />
<polygon fill="#558dc0" fill-opacity="0.501961" points="201,6 251,17 204,25" />
<polygon fill="#1c2600" fill-opacity="0.501961" points="38,142 0,145 8,155" />
<polygon fill="#50520c" fill-opacity="0.501961" points="54,130 9,116 29,108" />
<polygon fill="#dfdad4" fill-opacity="0.501961" points="187,109 196,109 183,118" />
<polygon fill="#000500" fill-opacity="0.501961" points="8,157 15,168 1,169" />
<polygon fill="#64601c" fill-opacity="0.501961" points="204,65 201,83 198,65" />
<polygon fill="#757550" fill-opacity="0.501961" points="31,52 51,54 14,34" />
<polygon fill="#5a5523" fill-opacity="0.501961" points="0,81 14,88 1,60" />
<polygon fill="#64611d" fill-opacity="0.501961" points="240,129 254,125 231,161" />
<polygon fill="#7ea1bc" fill-opacity="0.501961" points="233,39 197,34 187,10" />
<polygon fill="#898330" fill-opacity="0.501961" points="30,135 35,147 34,119" />
<polygon fill="#a7a279" fill-opacity="0.501961" points="246,99 229,66 225,79" />
<polygon fill="#9d977d" fill-opacity="0.501961" points="225,77 206,103 209,84" />
<polygon fill="#414b04" fill-opacity="0.501961" points="152,147 114,143 111,128" />
<polygon fill="#687130" fill-opacity="0.501961" points="191,45 187,53 191,61" />
<polygon fill="#6d6a31" fill-opacity="0.501961" points="75,85 84,101 82,80" />
<polygon fill="#659dd4" fill-opacity="0.501961" points="31,37 39,7 43,22" />
<polygon fill="#a6c0cb" fill-opacity="0.501961" points="76,57 159,51 113,42" />
<polygon fill="#9c9d80" fill-opacity="0.501961" points="62,71 36,61 38,32" />
<polygon fill="#4a4e25" fill-opacity="0.501961" points="16,69 22,88 11,71" />
<polygon fill="#bcb68c" fill-opacity="0.501961" points="111,103 99,111 116,113" />
<polygon fill="#131e00" fill-opacity="0.501961" points="255,120 244,130 255,108" />
<polygon fill="#918b73" fill-opacity="0.501961" points="26,88 36,101 26,107" />
<polygon fill="#1b5e9b" fill-opacity="0.501961" points="255,1 255,10 226,0" />
<polygon fill="#8c9287" fill-opacity="0.501961" points="224,9 238,12 251,7" />
<polygon fill="#d9d1ad" fill-opacity="0.501961" points="107,89 147,63 129,64" />
<polygon fill="#60612e" fill-opacity="0.501961" points="55,153 90,127 85,144" />
<polygon fill="#263300" fill-opacity="0.501961" points="206,164 228,124 229,164" />
<polygon fill="#c0c0ad" fill-opacity="0.501961" points="182,34 155,46 199,43" />
<polygon fill="#c3bda7" fill-opacity="0.501961" points="110,81 136,62 66,80" />
<polygon fill="#9c986b" fill-opacity="0.501961" points="182,45 155,65 163,79" />
<polygon fill="#d8d4b7" fill-opacity="0.501961" points="100,49 121,51 103,44" />
<polygon fill="#a59e67" fill-opacity="0.501961" points="218,113 215,110 217,118" />
<polygon fill="#9e9e82" fill-opacity="0.501961" points="202,26 217,77 218,44" />
<polygon fill="#a99972" fill-opacity="0.501961" points="85,161 86,153 84,156" />
<polygon fill="#74771a" fill-opacity="0.501961" points="136,135 126,140 122,114" />
<polygon fill="#8b8974" fill-opacity="0.501961" points="10,136 13,119 21,120" />
<polygon fill="#716521" fill-opacity="0.501961" points="69,112 115,96 86,116" />
<polygon fill="#8b845d" fill-opacity="0.501961" points="11,103 22,90 13,76" />
<polygon fill="#b5b198" fill-opacity="0.501961" points="204,138 198,133 209,129" />
<polygon fill="#5688bc" fill-opacity="0.501961" points="28,2 54,16 108,0" />
<polygon fill="#7a8030" fill-opacity="0.501961" points="121,149 120,136 110,165" />
<polygon fill="#544d1f" fill-opacity="0.501961" points="41,101 50,85 40,85" />
<polygon fill="#6a9aca" fill-opacity="0.501961" points="55,13 166,20 119,0" />
<polygon fill="#484310" fill-opacity="0.501961" points="240,75 255,98 236,81" />
<polygon fill="#bdba9f" fill-opacity="0.501961" points="225,84 239,68 231,66" />
<polygon fill="#b8b38e" fill-opacity="0.501961" points="192,88 180,59 188,56" />
<polygon fill="#8e8d3b" fill-opacity="0.501961" points="168,105 192,107 138,126" />
<polygon fill="#171a00" fill-opacity="0.501961" points="37,107 27,115 35,104" />
<polygon fill="#3b3f00" fill-opacity="0.501961" points="7,87 0,132 12,131" />
<polygon fill="#8d9974" fill-opacity="0.501961" points="127,109 111,119 139,119" />
<polygon fill="#586504" fill-opacity="0.501961" points="126,126 129,112 99,134" />
<polygon fill="#b3b193" fill-opacity="0.501961" points="173,109 171,92 177,93" />
<polygon fill="#7a754c" fill-opacity="0.501961" points="98,75 93,70 93,77" />
<polygon fill="#444806" fill-opacity="0.501961" points="61,129 35,166 94,120" />
<polygon fill="#c89400" fill-opacity="0.501961" points="208,128 223,126 218,123" />
<polygon fill="#4a4c0b" fill-opacity="0.501961" points="50,123 82,150 128,156" />
<polygon fill="#555720" fill-opacity="0.501961" points="42,81 43,62 39,67" />
<polygon fill="#95926d" fill-opacity="0.501961" points="64,107 51,114 58,94" />
<polygon fill="#bcb3a7" fill-opacity="0.501961" points="31,167 29,153 39,158" />
<polygon fill="#aca476" fill-opacity="0.501961" points="205,87 195,102 188,81" />
<polygon fill="#c5c3ae" fill-opacity="0.501961" points="127,32 139,46 111,36" />
<polygon fill="#73733c" fill-opacity="0.501961" points="74,72 54,86 63,73" />
<polygon fill="#b4ae92" fill-opacity="0.501961" points="203,80 205,66 227,69" />
<polygon fill="#aea991" fill-opacity="0.501961" points="144,11 152,15 158,8" />
<polygon fill="#676527" fill-opacity="0.501961" points="183,90 178,76 201,92" />
<polygon fill="#a2b3b8" fill-opacity="0.501961" points="54,47 75,26 39,35" />
<polygon fill="#7bb1e3" fill-opacity="0.501961" points="122,15 151,19 135,40" />
<polygon fill="#535d5b" fill-opacity="0.501961" points="237,43 254,41 255,33" />
<polygon fill="#9c9f7d" fill-opacity="0.501961" points="166,135 184,123 179,120" />
<polygon fill="#6a9bc7" fill-opacity="0.501961" points="147,0 176,28 194,17" />
<polygon fill="#b4ac93" fill-opacity="0.501961" points="2,143 4,139 0,134" />
<polygon fill="#3b74a1" fill-opacity="0.501961" points="186,0 188,17 180,1" />
<polygon fill="#c3bc9e" fill-opacity="0.501961" points="166,20 152,23 165,27" />
<polygon fill="#82b3dd" fill-opacity="0.501961" points="93,51 127,19 72,35" />
<polygon fill="#7c684a" fill-opacity="0.501961" points="100,145 106,149 98,160" />
<polygon fill="#9c9774" fill-opacity="0.501961" points="24,80 18,58 18,81" />
<polygon fill="#2d3409" fill-opacity="0.501961" points="34,86 33,74 30,90" />
<polygon fill="#81bae5" fill-opacity="0.501961" points="107,43 123,50 121,37" />
<polygon fill="#ada786" fill-opacity="0.501961" points="255,83 241,85 245,70" />
<polygon fill="#bab292" fill-opacity="0.501961" points="237,61 226,62 247,51" />
<polygon fill="#465449" fill-opacity="0.501961" points="0,33 0,26 5,31" />
<polygon fill="#d1caa1" fill-opacity="0.501961" points="156,63 171,58 153,54" />
<polygon fill="#5d6617" fill-opacity="0.501961" points="185,137 198,143 206,89" />
<polygon fill="#f1eae2" fill-opacity="0.501961" points="85,85 92,79 86,75" />
<polygon fill="#696514" fill-opacity="0.501961" points="10,117 6,94 0,116" />
<polygon fill="#bfb893" fill-opacity="0.501961" points="212,83 215,92 223,88" />
<polygon fill="#868245" fill-opacity="0.501961" points="128,85 109,84 117,81" />
<polygon fill="#8f7d4a" fill-opacity="0.501961" points="243,62 255,45 255,88" />
<polygon fill="#878463" fill-opacity="0.501961" points="29,25 19,24 9,50" />
<polygon fill="#434604" fill-opacity="0.501961" points="114,166 87,119 108,140" />
<polygon fill="#6e7107" fill-opacity="0.501961" points="141,106 161,102 139,120" />
<polygon fill="#d9dfc7" fill-opacity="0.501961" points="119,88 129,86 122,90" />
<polygon fill="#67848d" fill-opacity="0.501961" points="167,40 163,31 157,35" />
<polygon fill="#aea592" fill-opacity="0.501961" points="41,69 46,83 62,80" />
<polygon fill="#989562" fill-opacity="0.501961" points="199,58 200,72 164,85" />
<polygon fill="#99a498" fill-opacity="0.501961" points="101,65 121,68 127,50" />
<polygon fill="#9dc2dd" fill-opacity="0.501961" points="153,37 144,56 164,42" />
<polygon fill="#95913f" fill-opacity="0.501961" points="145,104 137,84 129,88" />
<polygon fill="#b2a89c" fill-opacity="0.501961" points="95,101 83,91 90,81" />
<polygon fill="#6c6f24" fill-opacity="0.501961" points="144,150 132,152 125,160" />
<polygon fill="#4c4f00" fill-opacity="0.501961" points="196,155 172,117 180,143" />
<polygon fill="#9f9e78" fill-opacity="0.501961" points="0,71 37,62 18,61" />
<polygon fill="#535d04" fill-opacity="0.501961" points="185,95 210,130 215,119" />
<polygon fill="#7d784b" fill-opacity="0.501961" points="14,43 19,57 3,83" />
<polygon fill="#b4ab9d" fill-opacity="0.501961" points="181,120 178,125 183,127" />
<polygon fill="#82823f" fill-opacity="0.501961" points="39,115 29,117 31,121" />
<polygon fill="#293800" fill-opacity="0.501961" points="161,148 142,141 145,152" />
<polygon fill="#9aa79d" fill-opacity="0.501961" points="154,48 144,39 150,66" />
<polygon fill="#cecaa7" fill-opacity="0.501961" points="153,66 159,77 151,82" />
<polygon fill="#2c3301" fill-opacity="0.501961" points="206,82 206,85 199,80" />
<polygon fill="#89805f" fill-opacity="0.501961" points="105,85 112,73 92,89" />
<polygon fill="#5f631a" fill-opacity="0.501961" points="191,67 191,74 188,75" />
<polygon fill="#565836" fill-opacity="0.501961" points="29,106 31,83 37,86" />
<polygon fill="#4a3c17" fill-opacity="0.501961" points="36,154 35,131 53,169" />
<polygon fill="#6f7309" fill-opacity="0.501961" points="172,103 207,102 200,110" />
<polygon fill="#122300" fill-opacity="0.501961" points="95,169 91,162 96,151" />
<polygon fill="#a8a788" fill-opacity="0.501961" points="204,66 208,52 182,38" />
<polygon fill="#96adba" fill-opacity="0.501961" points="20,55 22,42 33,59" />
<polygon fill="#9b965c" fill-opacity="0.501961" points="192,133 196,126 190,130" />
<polygon fill="#798f99" fill-opacity="0.501961" points="255,32 224,23 255,23" />
<polygon fill="#707a00" fill-opacity="0.501961" points="175,115 160,102 167,103" />
<polygon fill="#676d55" fill-opacity="0.501961" points="244,50 226,46 229,58" />
<polygon fill="#444501" fill-opacity="0.501961" points="226,83 232,85 219,105" />
<polygon fill="#918f6a" fill-opacity="0.501961" points="78,71 83,87 83,69" />
<polygon fill="#a09f7e" fill-opacity="0.501961" points="138,125 143,119 150,119" />
<polygon fill="#4e5204" fill-opacity="0.501961" points="159,158 197,168 139,169" />
<polygon fill="#202c00" fill-opacity="0.501961" points="248,152 255,132 245,134" />
<polygon fill="#aba989" fill-opacity="0.501961" points="197,111 185,112 192,118" />
<polygon fill="#51510e" fill-opacity="0.501961" points="41,115 21,129 64,116" />
<polygon fill="#3d420d" fill-opacity="0.501961" points="158,134 151,126 152,150" />
<polygon fill="#a9ae96" fill-opacity="0.501961" points="55,124 51,120 55,120" />
<polygon fill="#535426" fill-opacity="0.501961" points="29,55 38,40 34,54" />
<polygon fill="#847b5b" fill-opacity="0.501961" points="8,73 1,101 0,86" />
<polygon fill="#87805f" fill-opacity="0.501961" points="13,113 21,104 18,102" />
<polygon fill="#535625" fill-opacity="0.501961" points="43,53 46,49 43,60" />
<polygon fill="#5c5220" fill-opacity="0.501961" points="0,43 0,70 6,65" />
<polygon fill="#4e4f0c" fill-opacity="0.501961" points="2,142 20,131 44,136" />
<polygon fill="#c6c8b9" fill-opacity="0.501961" points="37,39 24,38 31,35" />
<polygon fill="#68750b" fill-opacity="0.501961" points="127,153 109,144 99,127" />
<polygon fill="#202c00" fill-opacity="0.501961" points="235,103 236,115 229,117" />
<polygon fill="#69710a" fill-opacity="0.501961" points="141,123 162,123 165,150" />
<polygon fill="#a9c0d0" fill-opacity="0.501961" points="37,56 42,59 40,50" />
<polygon fill="#b4a490" fill-opacity="0.501961" points="29,97 43,103 42,110" />
<polygon fill="#a4b2af" fill-opacity="0.501961" points="82,68 69,27 68,55" />
<polygon fill="#aea48f" fill-opacity="0.501961" points="106,94 76,107 93,92" />
<polygon fill="#6093c1" fill-opacity="0.501961" points="5,22 24,15 38,25" />
<polygon fill="#7c6d52" fill-opacity="0.501961" points="87,139 81,135 87,131" />
<polygon fill="#aba87c" fill-opacity="0.501961" points="188,96 194,93 192,77" />
<polygon fill="#ab943c" fill-opacity="0.501961" points="152,87 155,80 169,81" />
<polygon fill="#918215" fill-opacity="0.501961" points="154,101 145,104 161,129" />
<polygon fill="#739ec6" fill-opacity="0.501961" points="9,36 0,35 10,27" />
<polygon fill="#316ea5" fill-opacity="0.501961" points="238,9 206,1 236,0" />
<polygon fill="#202d00" fill-opacity="0.501961" points="219,159 212,169 209,153" />
<polygon fill="#7b7544" fill-opacity="0.501961" points="208,101 232,97 211,91" />
<polygon fill="#6c7a12" fill-opacity="0.501961" points="189,118 181,121 194,138" />
<polygon fill="#656b00" fill-opacity="0.501961" points="146,118 159,115 134,103" />
<polygon fill="#bcbda5" fill-opacity="0.501961" points="13,91 10,88 8,90" />
<polygon fill="#aba47c" fill-opacity="0.501961" points="17,51 11,54 0,51" />
<polygon fill="#878b3d" fill-opacity="0.501961" points="131,135 151,132 141,141" />
<polygon fill="#bcc4b7" fill-opacity="0.501961" points="89,69 79,67 101,61" />
<polygon fill="#c8c6b5" fill-opacity="0.501961" points="135,79 154,94 142,76" />
<polygon fill="#4b7ca3" fill-opacity="0.501961" points="235,9 255,11 237,28" />
<polygon fill="#968066" fill-opacity="0.501961" points="30,134 36,141 33,141" />
<polygon fill="#848a74" fill-opacity="0.501961" points="210,53 211,38 199,37" />
<polygon fill="#908a5b" fill-opacity="0.501961" points="167,61 150,64 183,68" />
<polygon fill="#2c3400" fill-opacity="0.501961" points="8,147 5,126 13,112" />
<polygon fill="#6b682b" fill-opacity="0.501961" points="168,55 170,52 169,56" />
<polygon fill="#586a6b" fill-opacity="0.501961" points="0,13 3,0 9,5" />
<polygon fill="#949980" fill-opacity="0.501961" points="69,63 92,57 75,67" />
<polygon fill="#939587" fill-opacity="0.501961" points="20,17 0,15 8,11" />
<polygon fill="#81b0d9" fill-opacity="0.501961" points="160,35 188,34 184,18" />
<polygon fill="#4a3d05" fill-opacity="0.501961" points="11,50 17,46 16,50" />
<polygon fill="#a7a482" fill-opacity="0.501961" points="133,76 136,62 132,67" />
<polygon fill="#75a0c1" fill-opacity="0.501961" points="28,44 26,50 13,41" />
<polygon fill="#afad95" fill-opacity="0.501961" points="136,118 139,112 125,118" />
<polygon fill="#6b6410" fill-opacity="0.501961" points="165,166 182,129 182,146" />
<polygon fill="#c8bda1" fill-opacity="0.501961" points="53,100 46,99 47,95" />
<polygon fill="#c3c5aa" fill-opacity="0.501961" points="53,53 57,38 61,55" />
<polygon fill="#394504" fill-opacity="0.501961" points="145,134 133,132 136,126" />
<polygon fill="#c6c5aa" fill-opacity="0.501961" points="229,65 230,60 234,72" />
<polygon fill="#1d2800" fill-opacity="0.501961" points="124,169 123,154 115,168" />
<polygon fill="#d5ccb7" fill-opacity="0.501961" points="202,117 198,119 199,117" />
<polygon fill="#dcdccd" fill-opacity="0.501961" points="140,35 148,35 134,48" />
<polygon fill="#040a00" fill-opacity="0.501961" points="27,158 26,169 13,168" />
<polygon fill="#83937c" fill-opacity="0.501961" points="57,46 63,52 69,45" />
<polygon fill="#474c00" fill-opacity="0.501961" points="225,112 221,131 251,163" />
<polygon fill="#998e60" fill-opacity="0.501961" points="227,34 233,29 251,39" />
<polygon fill="#545d02" fill-opacity="0.501961" points="75,141 64,110 62,142" />
<polygon fill="#936b3c" fill-opacity="0.501961" points="98,144 98,140 95,139" />
<polygon fill="#747811" fill-opacity="0.501961" points="164,99 164,88 186,78" />
<polygon fill="#8f916c" fill-opacity="0.501961" points="163,47 158,56 164,54" />
<polygon fill="#4b665a" fill-opacity="0.501961" points="192,29 191,26 198,24" />
<polygon fill="#b8bfbc" fill-opacity="0.501961" points="191,18 195,18 189,26" />
<polygon fill="#d9dab0" fill-opacity="0.501961" points="185,98 181,96 177,100" />
<polygon fill="#4f531e" fill-opacity="0.501961" points="58,105 62,109 57,108" />
<polygon fill="#747247" fill-opacity="0.501961" points="50,69 72,97 64,78" />
<polygon fill="#7e7645" fill-opacity="0.501961" points="100,83 97,99 96,89" />
<polygon fill="#bbbda7" fill-opacity="0.501961" points="255,82 248,81 255,80" />
<polygon fill="#95bbdc" fill-opacity="0.501961" points="198,41 193,31 194,42" />
<polygon fill="#5b8bb1" fill-opacity="0.501961" points="229,29 219,34 224,40" />
<polygon fill="#5b91bf" fill-opacity="0.501961" points="145,11 105,1 158,0" />
<polygon fill="#78794d" fill-opacity="0.501961" points="211,70 211,87 205,88" />
<polygon fill="#777548" fill-opacity="0.501961" points="36,64 15,79 22,67" />
<polygon fill="#aab59a" fill-opacity="0.501961" points="121,106 122,113 129,111" />
<polygon fill="#9cc4e1" fill-opacity="0.501961" points="68,55 66,50 72,49" />
<polygon fill="#c5bfa1" fill-opacity="0.501961" points="152,92 137,91 130,97" />
<polygon fill="#afa991" fill-opacity="0.501961" points="168,0 158,2 180,6" />
<polygon fill="#404a00" fill-opacity="0.501961" points="137,145 136,157 127,133" />
<polygon fill="#8d8a42" fill-opacity="0.501961" points="135,97 158,95 131,110" />
<polygon fill="#bdbbad" fill-opacity="0.501961" points="51,66 53,60 54,67" />
<polygon fill="#999a84" fill-opacity="0.501961" points="255,54 237,57 227,51" />
<polygon fill="#888e80" fill-opacity="0.501961" points="248,128 251,126 253,131" />
<polygon fill="#a4b7bd" fill-opacity="0.501961" points="78,46 111,49 79,59" />
<polygon fill="#383d00" fill-opacity="0.501961" points="206,159 199,155 216,137" />
<polygon fill="#726a2c" fill-opacity="0.501961" points="52,100 65,95 67,101" />
<polygon fill="#4980b2" fill-opacity="0.501961" points="42,14 41,0 0,7" />
<polygon fill="#949776" fill-opacity="0.501961" points="48,128 41,128 50,146" />
<polygon fill="#3c3e01" fill-opacity="0.501961" points="41,142 33,154 66,148" />
<polygon fill="#4d5b00" fill-opacity="0.501961" points="178,126 173,117 163,120" />
<polygon fill="#65650f" fill-opacity="0.501961" points="212,140 205,132 201,151" />
<polygon fill="#626525" fill-opacity="0.501961" points="205,60 210,65 213,63" />
<polygon fill="#c6c3a7" fill-opacity="0.501961" points="170,63 193,56 180,56" />
<polygon fill="#a7a88b" fill-opacity="0.501961" points="30,66 30,53 25,57" />
<polygon fill="#1e2800" fill-opacity="0.501961" points="29,137 32,146 21,155" />
<polygon fill="#878d20" fill-opacity="0.501961" points="164,133 163,148 178,139" />
<polygon fill="#525f0c" fill-opacity="0.501961" points="225,155 218,155 225,163" />
<polygon fill="#bcc2ae" fill-opacity="0.501961" points="211,134 204,129 209,129" />
<polygon fill="#414104" fill-opacity="0.501961" points="175,165 186,162 185,126" />
<polygon fill="#67641a" fill-opacity="0.501961" points="244,136 236,141 247,117" />
<polygon fill="#82a3bb" fill-opacity="0.501961" points="100,49 90,38 96,56" />
<polygon fill="#9c955d" fill-opacity="0.501961" points="255,105 245,107 255,99" />
<polygon fill="#9fbfd3" fill-opacity="0.501961" points="141,34 159,30 152,21" />
<polygon fill="#a7a597" fill-opacity="0.501961" points="37,84 40,93 41,81" />
<polygon fill="#313a00" fill-opacity="0.501961" points="76,162 39,152 75,151" />
<polygon fill="#b6a878" fill-opacity="0.501961" points="255,60 246,68 249,61" />
<polygon fill="#9ea8a8" fill-opacity="0.501961" points="254,39 244,46 255,44" />
<polygon fill="#ccceb6" fill-opacity="0.501961" points="117,67 112,60 114,77" />
<polygon fill="#3d3f0a" fill-opacity="0.501961" points="243,131 245,101 236,118" />
<polygon fill="#aaa88c" fill-opacity="0.501961" points="118,60 135,59 109,70" />
<polygon fill="#726c48" fill-opacity="0.501961" points="242,31 235,37 250,30" />
<polygon fill="#334002" fill-opacity="0.501961" points="123,132 111,129 110,139" />
<polygon fill="#727722" fill-opacity="0.501961" points="138,112 114,104 124,101" />
<polygon fill="#898561" fill-opacity="0.501961" points="48,159 44,162 47,157" />
<polygon fill="#1c2500" fill-opacity="0.501961" points="22,134 8,132 16,131" />
<polygon fill="#555b09" fill-opacity="0.501961" points="249,156 255,145 255,154" />
<polygon fill="#a9c3d1" fill-opacity="0.501961" points="136,55 162,40 157,50" />
<polygon fill="#b7b299" fill-opacity="0.501961" points="210,37 228,39 225,43" />
<polygon fill="#ccc9a9" fill-opacity="0.501961" points="173,73 176,75 174,81" />
<polygon fill="#2e3202" fill-opacity="0.501961" points="64,136 59,117 58,133" />
<polygon fill="#908d54" fill-opacity="0.501961" points="139,71 143,77 157,73" />
<polygon fill="#636901" fill-opacity="0.501961" points="220,134 230,121 231,102" />
<polygon fill="#424b00" fill-opacity="0.501961" points="59,126 46,138 58,138" />
<polygon fill="#9a9682" fill-opacity="0.501961" points="224,12 232,7 233,12" />
<polygon fill="#55431a" fill-opacity="0.501961" points="77,123 82,122 86,137" />
<polygon fill="#828318" fill-opacity="0.501961" points="141,122 150,131 143,138" />
<polygon fill="#4f6360" fill-opacity="0.501961" points="252,32 249,22 248,37" />
<polygon fill="#65612b" fill-opacity="0.501961" points="233,61 232,66 241,66" />
<polygon fill="#9a9572" fill-opacity="0.501961" points="242,110 236,110 237,108" />
<polygon fill="#2e3902" fill-opacity="0.501961" points="218,144 230,127 233,156" />
<polygon fill="#8f9060" fill-opacity="0.501961" points="29,132 18,127 21,131" />
<polygon fill="#a3d0ec" fill-opacity="0.501961" points="112,33 103,42 115,50" />
<polygon fill="#b7a579" fill-opacity="0.501961" points="187,109 177,107 186,106" />
<polygon fill="#eae6d6" fill-opacity="0.501961" points="128,69 124,77 118,77" />
<polygon fill="#7c6925" fill-opacity="0.501961" points="45,123 47,100 53,101" />
<polygon fill="#716623" fill-opacity="0.501961" points="222,117 212,91 211,103" />
<polygon fill="#9bb4c0" fill-opacity="0.501961" points="112,64 123,45 131,46" />
<polygon fill="#c0b6aa" fill-opacity="0.501961" points="162,94 156,99 161,100" />
<polygon fill="#273400" fill-opacity="0.501961" points="159,153 172,151 172,146" />
<polygon fill="#63652b" fill-opacity="0.501961" points="217,49 228,63 220,59" />
<polygon fill="#989e96" fill-opacity="0.501961" points="111,156 113,155 117,157" />
<polygon fill="#2e3b00" fill-opacity="0.501961" points="85,164 82,151 79,157" />
<polygon fill="#8a8762" fill-opacity="0.501961" points="14,133 14,137 8,133" />
<polygon fill="#89a0ab" fill-opacity="0.501961" points="36,31 18,32 33,37" />
<polygon fill="#8e7c1b" fill-opacity="0.501961" points="190,88 194,92 200,85" />
<polygon fill="#a09b68" fill-opacity="0.501961" points="66,61 45,50 51,47" />
<polygon fill="#c2bba3" fill-opacity="0.501961" points="107,87 94,93 114,76" />
<polygon fill="#a5a586" fill-opacity="0.501961" points="212,58 220,39 183,67" />
<polygon fill="#303200" fill-opacity="0.501961" points="52,90 55,94 48,90" />
<polygon fill="#7e7f2b" fill-opacity="0.501961" points="131,78 133,82 129,83" />
<polygon fill="#706d0d" fill-opacity="0.501961" points="74,117 63,105 70,99" />
<polygon fill="#7c7541" fill-opacity="0.501961" points="33,50 28,40 37,43" />
<polygon fill="#857d5a" fill-opacity="0.501961" points="89,91 86,96 97,96" />
<polygon fill="#6a6617" fill-opacity="0.501961" points="40,123 40,130 31,114" />
<polygon fill="#636e16" fill-opacity="0.501961" points="99,112 107,130 119,123" />
<polygon fill="#a29d7f" fill-opacity="0.501961" points="21,29 6,47 0,40" />
<polygon fill="#cac7a8" fill-opacity="0.501961" points="60,101 54,103 60,104" />
<polygon fill="#c0cac1" fill-opacity="0.501961" points="109,61 112,55 88,55" />
<polygon fill="#d4d2cd" fill-opacity="0.501961" points="171,133 165,128 167,133" />
<polygon fill="#787800" fill-opacity="0.501961" points="179,133 177,109 172,117" />
<polygon fill="#8b8c5e" fill-opacity="0.501961" points="186,151 193,158 202,160" />
<polygon fill="#6596c5" fill-opacity="0.501961" points="186,8 221,21 204,26" />
<polygon fill="#353800" fill-opacity="0.501961" points="0,131 16,116 0,120" />
<polygon fill="#b1b098" fill-opacity="0.501961" points="185,51 189,65 172,50" />
<polygon fill="#817952" fill-opacity="0.501961" points="43,79 42,60 50,62" />
</g>
</svg>